<svg xmlns="http://www.w3.org/2000/svg" viewBox="0 0 50 51">
  <g id="Page-1" stroke="none" stroke-width="1" fill="none" fill-rule="evenodd">
    <g id="insta" fill="#FFF" fill-rule="nonzero">
      <path d="M25.2 12.7c-7 0-12.8 5.7-12.8 12.8 0 7.1 5.7 12.8 12.8 12.8 7.1 0 12.8-5.8 12.8-12.8 0-7-5.8-12.8-12.8-12.8zm0 21c-4.5 0-8.2-3.7-8.2-8.2 0-4.5 3.7-8.2 8.2-8.2 4.5 0 8.2 3.7 8.2 8.2 0 4.5-3.7 8.2-8.2 8.2z" id="Shape"/>
      <circle id="Oval" cx="38.5" cy="12.4" r="2.9"/>
      <path d="M46 4.9C43.4 2.2 39.7.8 35.5.8H14.9C6.2.8.4 6.6.4 15.3v20.5c0 4.3 1.4 8 4.2 10.7 2.7 2.6 6.3 3.9 10.4 3.9h20.4c4.3 0 7.9-1.4 10.5-3.9 2.7-2.6 4.1-6.3 4.1-10.6V15.3c0-4.2-1.4-7.8-4-10.4zm-.4 31c0 3.1-1.1 5.6-2.9 7.3-1.8 1.7-4.3 2.6-7.3 2.6H15c-3 0-5.5-.9-7.3-2.6C5.9 41.4 5 38.9 5 35.8V15.3c0-3 .9-5.5 2.7-7.3C9.4 6.3 12 5.4 15 5.4h20.6c3 0 5.5.9 7.3 2.7 1.7 1.8 2.7 4.3 2.7 7.2v20.6z" id="Shape"/>
    </g>
  </g>
</svg>
