<svg xmlns="http://www.w3.org/2000/svg" viewBox="0 0 32 24">
  <g id="Page-1" stroke="none" stroke-width="1" fill="none" fill-rule="evenodd">
    <g id="youtube" fill="#FFF" fill-rule="nonzero">
      <path d="M31.67 5.179s.32 2.761.32 5.523v2.588c0 2.762-.32 5.523-.32 5.523s-.313 2.352-1.271 3.386c-1.217 1.358-2.58 1.366-3.205 1.446-4.477.343-11.199.355-11.199.355s-8.318-.081-10.877-.343c-.712-.142-2.309-.101-3.527-1.459C.632 21.164.32 18.812.32 18.812S0 16.052 0 13.289v-2.588C0 7.94.32 5.179.32 5.179S.633 2.826 1.591 1.79C2.809.432 4.171.424 4.796.347 9.272 0 15.987 0 15.987 0h.015s6.715 0 11.192.347c.625.077 1.988.085 3.205 1.443.959 1.036 1.271 3.389 1.271 3.389zM12 6v12l10-6-10-6z" id="Combined-Shape"/>
    </g>
  </g>
</svg>
